<svg width="50" height="50" viewBox="0 0 50 50" fill="none" xmlns="http://www.w3.org/2000/svg">
<rect width="50" height="50" rx="6" fill="#D9D9D9"/>
<path d="M28.5 27H27.71L27.43 26.73C28.41 25.59 29 24.11 29 22.5C29 18.91 26.09 16 22.5 16C18.91 16 16 18.91 16 22.5C16 26.09 18.91 29 22.5 29C24.11 29 25.59 28.41 26.73 27.43L27 27.71V28.5L32 33.49L33.49 32L28.5 27ZM22.5 27C20.01 27 18 24.99 18 22.5C18 20.01 20.01 18 22.5 18C24.99 18 27 20.01 27 22.5C27 24.99 24.99 27 22.5 27Z" fill="white"/>
</svg>
