<svg width="42" height="16" viewBox="0 0 42 16" fill="none" xmlns="http://www.w3.org/2000/svg">
<path d="M22.9834 13H21.7119V4.57129L19.1621 5.50781V4.35938L22.7852 2.99902H22.9834V13ZM33.21 13H26.6885V12.0908L30.1338 8.2627C30.6442 7.68392 30.9951 7.21452 31.1865 6.85449C31.3825 6.48991 31.4805 6.11393 31.4805 5.72656C31.4805 5.20703 31.3232 4.78092 31.0088 4.44824C30.6943 4.11556 30.2751 3.94922 29.751 3.94922C29.1221 3.94922 28.6322 4.12923 28.2812 4.48926C27.9349 4.84473 27.7617 5.34147 27.7617 5.97949H26.4971C26.4971 5.06348 26.791 4.32292 27.3789 3.75781C27.9714 3.19271 28.762 2.91016 29.751 2.91016C30.6761 2.91016 31.4076 3.15397 31.9453 3.6416C32.4831 4.12467 32.752 4.76953 32.752 5.57617C32.752 6.55599 32.1276 7.72266 30.8789 9.07617L28.2129 11.9678H33.21V13ZM36.3887 7.4082H37.3389C37.9359 7.39909 38.4053 7.24186 38.7471 6.93652C39.0889 6.63118 39.2598 6.21875 39.2598 5.69922C39.2598 4.53255 38.6787 3.94922 37.5166 3.94922C36.9697 3.94922 36.5322 4.10645 36.2041 4.4209C35.8805 4.73079 35.7188 5.14323 35.7188 5.6582H34.4541C34.4541 4.86979 34.7412 4.21582 35.3154 3.69629C35.8942 3.1722 36.6279 2.91016 37.5166 2.91016C38.4554 2.91016 39.1914 3.15853 39.7246 3.65527C40.2578 4.15202 40.5244 4.84245 40.5244 5.72656C40.5244 6.15951 40.3831 6.57878 40.1006 6.98438C39.8226 7.38997 39.4421 7.69303 38.959 7.89355C39.5059 8.06673 39.9274 8.35384 40.2236 8.75488C40.5244 9.15592 40.6748 9.64583 40.6748 10.2246C40.6748 11.1178 40.3831 11.8265 39.7998 12.3506C39.2165 12.8747 38.4577 13.1367 37.5234 13.1367C36.5892 13.1367 35.8281 12.8838 35.2402 12.3779C34.6569 11.8721 34.3652 11.2044 34.3652 10.375H35.6367C35.6367 10.8991 35.8076 11.3184 36.1494 11.6328C36.4912 11.9473 36.9492 12.1045 37.5234 12.1045C38.1341 12.1045 38.6012 11.945 38.9248 11.626C39.2484 11.307 39.4102 10.849 39.4102 10.252C39.4102 9.67318 39.2324 9.22884 38.877 8.91895C38.5215 8.60905 38.0088 8.44954 37.3389 8.44043H36.3887V7.4082Z" fill="#7E7E7E"/>
<path fill-rule="evenodd" clip-rule="evenodd" d="M6.99999 1.21875C7.1225 1.21867 7.24259 1.25289 7.34666 1.31753C7.45074 1.38216 7.53463 1.47465 7.58887 1.5845L9.23562 4.92262L12.9194 5.45812C13.0405 5.47572 13.1543 5.52686 13.248 5.60575C13.3416 5.68465 13.4112 5.78816 13.4491 5.90458C13.487 6.021 13.4915 6.1457 13.4622 6.26457C13.4329 6.38344 13.371 6.49175 13.2834 6.57725L10.6181 9.176L11.2472 12.844C11.268 12.9647 11.2546 13.0888 11.2085 13.2022C11.1624 13.3157 11.0854 13.414 10.9864 13.486C10.8873 13.558 10.7701 13.6009 10.648 13.6097C10.5258 13.6186 10.4036 13.5931 10.2952 13.5361L6.99999 11.8036L3.70474 13.5361C3.59641 13.593 3.47432 13.6185 3.35228 13.6096C3.23024 13.6008 3.1131 13.558 3.01409 13.4861C2.91508 13.4142 2.83813 13.3161 2.79195 13.2028C2.74577 13.0895 2.73219 12.9655 2.75274 12.8449L3.38274 9.17513L0.715741 6.57725C0.627862 6.49178 0.565678 6.38341 0.536237 6.26441C0.506795 6.14541 0.511273 6.02055 0.549163 5.90396C0.587053 5.78738 0.656839 5.68374 0.750615 5.60478C0.844391 5.52583 0.958406 5.47472 1.07974 5.45725L4.76349 4.92262L6.41112 1.5845C6.46535 1.47465 6.54925 1.38216 6.65332 1.31753C6.75739 1.25289 6.87748 1.21867 6.99999 1.21875ZM6.99999 3.35813L5.78812 5.8125C5.74105 5.90779 5.67156 5.99022 5.58559 6.05271C5.49963 6.1152 5.39978 6.15588 5.29462 6.17125L2.58474 6.565L4.54474 8.476C4.621 8.55026 4.67805 8.64195 4.71098 8.74316C4.7439 8.84438 4.75172 8.95209 4.73374 9.057L4.27174 11.7555L6.69462 10.4815C6.78879 10.432 6.89359 10.4061 6.99999 10.4061C7.10639 10.4061 7.21119 10.432 7.30537 10.4815L9.72912 11.7555L9.26537 9.057C9.24739 8.95209 9.2552 8.84438 9.28813 8.74316C9.32106 8.64195 9.37811 8.55026 9.45437 8.476L11.4144 6.56588L8.70537 6.17212C8.60021 6.15676 8.50035 6.11608 8.41439 6.05359C8.32843 5.9911 8.25893 5.90866 8.21187 5.81337L6.99999 3.35725V3.35813Z" fill="#FF9432"/>
</svg>
